HIERARCHY
ROOT hip
{
  OFFSET 0 0 0
  CHANNELS 6 Xposition Yposition Zposition Zrotation Yrotation Xrotation
  JOINT abdomen
  {
    OFFSET 0 20.6881 -0.73152
    CHANNELS 3 Zrotation Xrotation Yrotation
    JOINT chest
    {
      OFFSET 0 11.7043 -0.48768
      CHANNELS 3 Zrotation Xrotation Yrotation
      JOINT neck
      {
        OFFSET 0 22.1894 -2.19456
        CHANNELS 3 Zrotation Xrotation Yrotation
        JOINT head
        {
          OFFSET -0.24384 7.07133 1.2192
          CHANNELS 3 Zrotation Xrotation Yrotation
          JOINT leftEye
          {
            OFFSET 4.14528 8.04674 8.04672
            CHANNELS 3 Zrotation Xrotation Yrotation
            End Site
            {
              OFFSET 1 0 0
            }
          }
          JOINT rightEye
          {
            OFFSET -3.6576 8.04674 8.04672
            CHANNELS 3 Zrotation Xrotation Yrotation
            End Site
            {
              OFFSET 1 0 0
            }
          }
        }
      }
      JOINT rCollar
      {
        OFFSET -2.68224 19.2634 -4.8768
        CHANNELS 3 Zrotation Xrotation Yrotation
        JOINT rShldr
        {
          OFFSET -8.77824 -1.95073 1.46304
          CHANNELS 3 Zrotation Xrotation Yrotation
          JOINT rForeArm
          {
            OFFSET -28.1742 -1.7115 0.48768
            CHANNELS 3 Zrotation Xrotation Yrotation
            JOINT rHand
            {
              OFFSET -22.5879 0.773209 7.07136
              CHANNELS 3 Zrotation Xrotation Yrotation
              JOINT rThumb1
              {
                OFFSET -1.2192 -0.487915 3.41376
                CHANNELS 3 Zrotation Xrotation Yrotation
                JOINT rThumb2
                {
                  OFFSET -3.37035 -0.52449 3.41376
                  CHANNELS 3 Zrotation Xrotation Yrotation
                  End Site
                  {
                    OFFSET -1.78271 -1.18214 1.43049
                  }
                }
              }
              JOINT rIndex1
              {
                OFFSET -7.75947 0.938293 5.60832
                CHANNELS 3 Zrotation Xrotation Yrotation
                JOINT rIndex2
                {
                  OFFSET -2.54057 -0.884171 1.56538
                  CHANNELS 3 Zrotation Xrotation Yrotation
                  End Site
                  {
                    OFFSET -1.62519 -0.234802 1.16502
                  }
                }
              }
              JOINT rMid1
              {
                OFFSET -8.24714 1.18213 3.41376
                CHANNELS 3 Zrotation Xrotation Yrotation
                JOINT rMid2
                {
                  OFFSET -3.10165 -0.590103 1.0647
                  CHANNELS 3 Zrotation Xrotation Yrotation
                  End Site
                  {
                    OFFSET -2.48547 -0.328903 0.83742
                  }
                }
              }
              JOINT rRing1
              {
                OFFSET -8.82822 0.546677 1.51678
                CHANNELS 3 Zrotation Xrotation Yrotation
                JOINT rRing2
                {
                  OFFSET -2.60934 -0.819778 -0.0198488
                  CHANNELS 3 Zrotation Xrotation Yrotation
                  End Site
                  {
                    OFFSET -2.33842 -0.294052 0.168128
                  }
                }
              }
              JOINT rPinky1
              {
                OFFSET -8.27202 -0.0477905 -0.4584
                CHANNELS 3 Zrotation Xrotation Yrotation
                JOINT rPinky2
                {
                  OFFSET -1.82734 -0.647385 -0.700984
                  CHANNELS 3 Zrotation Xrotation Yrotation
                  End Site
                  {
                    OFFSET -1.69225 -0.51767 -0.607171
                  }
                }
              }
            }
          }
        }
      }
      JOINT lCollar
      {
        OFFSET 2.68224 19.2634 -4.8768
        CHANNELS 3 Zrotation Xrotation Yrotation
        JOINT lShldr
        {
          OFFSET 8.77824 -1.95073 1.46304
          CHANNELS 3 Zrotation Xrotation Yrotation
          JOINT lForeArm
          {
            OFFSET 28.1742 -1.7115 0.48768
            CHANNELS 3 Zrotation Xrotation Yrotation
            JOINT lHand
            {
              OFFSET 22.5879 0.773209 7.07136
              CHANNELS 3 Zrotation Xrotation Yrotation
              JOINT lThumb1
              {
                OFFSET 1.2192 -0.487915 3.41376
                CHANNELS 3 Zrotation Xrotation Yrotation
                JOINT lThumb2
                {
                  OFFSET 3.37035 -0.52449 3.41376
                  CHANNELS 3 Zrotation Xrotation Yrotation
                  End Site
                  {
                    OFFSET 1.78271 -1.18214 1.43049
                  }
                }
              }
              JOINT lIndex1
              {
                OFFSET 7.75947 0.938293 5.60832
                CHANNELS 3 Zrotation Xrotation Yrotation
                JOINT lIndex2
                {
                  OFFSET 2.54057 -0.884171 1.56538
                  CHANNELS 3 Zrotation Xrotation Yrotation
                  End Site
                  {
                    OFFSET 1.62519 -0.234802 1.16502
                  }
                }
              }
              JOINT lMid1
              {
                OFFSET 8.24714 1.18213 3.41376
                CHANNELS 3 Zrotation Xrotation Yrotation
                JOINT lMid2
                {
                  OFFSET 3.10165 -0.590103 1.0647
                  CHANNELS 3 Zrotation Xrotation Yrotation
                  End Site
                  {
                    OFFSET 2.48547 -0.328903 0.83742
                  }
                }
              }
              JOINT lRing1
              {
                OFFSET 8.82822 0.546677 1.51678
                CHANNELS 3 Zrotation Xrotation Yrotation
                JOINT lRing2
                {
                  OFFSET 2.60934 -0.819778 -0.0198488
                  CHANNELS 3 Zrotation Xrotation Yrotation
                  End Site
                  {
                    OFFSET 2.33842 -0.294052 0.168128
                  }
                }
              }
              JOINT lPinky1
              {
                OFFSET 8.27202 -0.0477905 -0.4584
                CHANNELS 3 Zrotation Xrotation Yrotation
                JOINT lPinky2
                {
                  OFFSET 1.82734 -0.647385 -0.700984
                  CHANNELS 3 Zrotation Xrotation Yrotation
                  End Site
                  {
                    OFFSET 1.69225 -0.51767 -0.607171
                  }
                }
              }
            }
          }
        }
      }
    }
  }
  JOINT rButtock
  {
    OFFSET -8.77824 4.35084 1.2192
    CHANNELS 3 Zrotation Xrotation Yrotation
    JOINT rThigh
    {
      OFFSET 0 -1.70687 -2.19456
      CHANNELS 3 Zrotation Xrotation Yrotation
      JOINT rShin
      {
        OFFSET 0 -36.8199 0.73152
        CHANNELS 3 Zrotation Xrotation Yrotation
        JOINT rFoot
        {
          OFFSET 0.73152 -45.1104 -5.12064
          CHANNELS 3 Zrotation Xrotation Yrotation
          End Site
          {
            OFFSET -1.1221 -3.69964 12.103
          }
        }
      }
    }
  }
  JOINT lButtock
  {
    OFFSET 8.77824 4.35084 1.2192
    CHANNELS 3 Zrotation Xrotation Yrotation
    JOINT lThigh
    {
      OFFSET 0 -1.70687 -2.19456
      CHANNELS 3 Zrotation Xrotation Yrotation
      JOINT lShin
      {
        OFFSET 0 -36.8199 0.73152
        CHANNELS 3 Zrotation Xrotation Yrotation
        JOINT lFoot
        {
          OFFSET -0.73152 -45.1104 -5.12064
          CHANNELS 3 Zrotation Xrotation Yrotation
          End Site
          {
            OFFSET 1.1221 -3.69964 12.103
          }
        }
      }
    }
  }
}
MOTION
Frames:	9
Frame Time:	0.00833333
91.8077 84.9792 -70.3847 0.0 0.0 0.0 -0.0369906 -0.000394255 -0.00106259 -0.0102115 -0.000642368 -0.00176898 -9.56337e-17 1.59028e-15 -8.54153e-18 -2.79541e-16 9.54166e-15 -2.95071e-17 -0.0 0.0 0.0 -0.0 0.0 0.0 9.8057e-17 -2.32951e-18 1.49089e-16 3.67868e-16 5.59082e-17 5.96354e-16 -1.55549e-14 2.78299e-15 0.0 -1.88883e-13 -1.51822e-14 -2.54444e-14 -4.46964e-13 -2.58789e-14 -4.45278e-14 -7.87187e-13 -4.45278e-14 -8.0309e-14 -4.42892e-13 -2.62396e-14 -4.77083e-14 7.73091 5.47488 0.417314 -4.47116e-13 -2.68359e-14 -3.81667e-14 2.90554 0.965183 0.102902 -4.41414e-13 -2.61402e-14 -4.37326e-14 10.2786 0.731801 0.0259123 -4.54621e-13 -2.14687e-14 -3.81667e-14 2.22167 -0.733487 -0.20892 -1.97454e-16 -1.94126e-18 -1.49089e-16 -1.96222e-15 -1.49089e-16 -7.95139e-16 -1.74931e-14 -6.55989e-15 0.0 -1.90659e-13 -2.98177e-15 -1.59028e-14 -4.477e-13 -2.09038e-14 -4.45278e-14 -7.58165e-13 -3.81667e-14 -7.23576e-14 -4.49651e-13 -2.14687e-14 -2.22639e-14 -7.73091 5.47488 -0.417314 -4.45675e-13 -2.17669e-14 -5.08889e-14 -2.90554 0.965183 -0.102902 -4.49825e-13 -2.10712e-14 -4.21423e-14 -10.2786 0.731801 -0.0259123 -4.39314e-13 -1.70955e-14 -5.40694e-14 -2.22167 -0.733487 0.20892 -2.03217e-16 0.0 -3.88251e-19 0.45225 -3.0226 -0.0389966 -0.00587877 -0.0777572 -0.0517928 -0.480049 3.09965 0.117405 2.03217e-16 0.0 3.88251e-19 -0.508684 -3.174 0.0425364 0.00543377 0.196477 0.0478052 0.480635 2.97682 -0.115
88.6602 83.5058 -71.9224 3.2284 -52.8013 0.1456 -0.755125 0.304644 1.06455 0.121687 -0.344124 0.297662 -1.43936 1.63731 -0.721268 0.970789 -1.92354 -1.16987 -0.0 0.0 0.0 -0.0 0.0 0.0 3.17239e-14 2.50788e-14 -2.46988e-13 21.5479 5.5513 0.164146 -3.13574 -1.26092 5.06109 0.00317847 1.25122 0.175696 4.00253e-10 -1.00664e-09 -3.60339e-10 6.89999e-10 -1.74201e-09 -6.25217e-10 4.00257e-10 -1.00664e-09 -3.60343e-10 7.73091 5.47488 0.417314 4.00253e-10 -1.00664e-09 -3.60336e-10 2.90554 0.965183 0.102902 4.00258e-10 -1.00664e-09 -3.6034e-10 10.2786 0.731801 0.0259123 4.00246e-10 -1.00663e-09 -3.60336e-10 2.22167 -0.733487 -0.20892 3.14401e-14 2.50797e-14 -2.47319e-13 -21.1274 9.25368 -0.232778 3.80538 -1.65413 -6.02246 -0.00439067 -1.47004 0.206356 3.31562e-10 -8.48317e-10 -5.559e-10 5.75161e-10 -1.46663e-09 -9.59802e-10 3.3156e-10 -8.48318e-10 -5.55884e-10 -7.73091 5.47488 -0.417314 3.31563e-10 -8.48318e-10 -5.55904e-10 -2.90554 0.965183 -0.102902 3.31561e-10 -8.48317e-10 -5.559e-10 -10.2786 0.731801 -0.0259123 3.31568e-10 -8.48314e-10 -5.55912e-10 -2.22167 -0.733487 0.20892 -2.03217e-16 0.0 -3.88251e-19 0.490663 -6.53796 0.331075 0.0202349 7.98137 0.106873 -0.991784 -2.22926 -4.64292 2.03217e-16 0.0 3.88251e-19 -2.23354 -6.21269 -0.699347 -0.0144932 7.23104 -0.0855113 0.865114 -1.99368 3.95461
88.6566 83.5081 -71.9178 3.2323 -52.7908 0.1174 -1.53289 0.624184 2.18949 0.265789 -0.703435 0.613727 -2.915 3.36602 -1.48553 1.91114 -3.95532 -2.41061 -0.0 0.0 0.0 -0.0 0.0 0.0 6.69084e-14 5.27007e-14 -5.08336e-13 44.2932 11.416 0.344563 -6.20965 -2.56103 10.4195 -0.00182139 2.57839 0.362342 8.04197e-10 -2.07333e-09 -7.25904e-10 1.38637e-09 -3.58794e-09 -1.25952e-09 8.04201e-10 -2.07333e-09 -7.25911e-10 7.73091 5.47488 0.417314 8.04198e-10 -2.07334e-09 -7.25905e-10 2.90554 0.965183 0.102902 8.04203e-10 -2.07334e-09 -7.25908e-10 10.2786 0.731801 0.0259123 8.04192e-10 -2.07333e-09 -7.25905e-10 2.22167 -0.733487 -0.20892 6.66327e-14 5.27021e-14 -5.08705e-13 -43.375 19.0329 -0.502945 7.45153 -3.34129 -12.4038 0.00249282 -3.02164 0.424619 6.75081e-10 -1.73578e-09 -1.15519e-09 1.17109e-09 -3.00086e-09 -1.99453e-09 6.75079e-10 -1.73578e-09 -1.15518e-09 -7.73091 5.47488 -0.417314 6.75082e-10 -1.73578e-09 -1.15519e-09 -2.90554 0.965183 -0.102902 6.75081e-10 -1.73578e-09 -1.15519e-09 -10.2786 0.731801 -0.0259123 6.75084e-10 -1.73578e-09 -1.15521e-09 -2.22167 -0.733487 0.20892 -2.03217e-16 0.0 -3.88251e-19 0.574798 -10.2523 0.724386 -0.00240377 16.5027 0.284262 -2.49809 -7.76993 -9.75371 2.03217e-16 0.0 3.88251e-19 -4.14912 -9.41917 -1.49592 0.00101748 14.6642 -0.232549 2.0412 -7.18093 8.31719
88.6574 83.5053 -71.9255 3.1832 -52.7705 0.1804 -2.22542 0.913457 3.19613 0.396256 -1.03097 0.896652 -4.19405 4.9088 -2.17089 2.67586 -5.76097 -3.52545 -0.0 0.0 0.0 -0.0 0.0 0.0 9.49756e-14 7.52412e-14 -7.41261e-13 64.5448 16.6533 0.511586 -8.74649 -3.66487 15.2115 -0.0135274 3.75352 0.528096 1.20165e-09 -3.01985e-09 -1.08093e-09 2.07157e-09 -5.22594e-09 -1.87549e-09 1.20166e-09 -3.01985e-09 -1.08093e-09 7.73091 5.47488 0.417314 1.20165e-09 -3.01986e-09 -1.08093e-09 2.90554 0.965183 0.102902 1.20166e-09 -3.01986e-09 -1.08093e-09 10.2786 0.731801 0.0259123 1.20165e-09 -3.01985e-09 -1.08093e-09 2.22167 -0.733487 -0.20892 9.47151e-14 7.5243e-14 -7.41658e-13 -63.1319 27.7591 -0.77889 10.3891 -4.74349 -18.124 0.0186745 -4.4099 0.6207 9.95581e-10 -2.54491e-09 -1.66761e-09 1.727e-09 -4.39981e-09 -2.87926e-09 9.95578e-10 -2.54491e-09 -1.66761e-09 -7.73091 5.47488 -0.417314 9.95581e-10 -2.54491e-09 -1.66761e-09 -2.90554 0.965183 -0.102902 9.95582e-10 -2.54491e-09 -1.66761e-09 -10.2786 0.731801 -0.0259123 9.95582e-10 -2.54491e-09 -1.66763e-09 -2.22167 -0.733487 0.20892 -2.03217e-16 0.0 -3.88251e-19 0.707226 -13.5666 1.09521 -0.0715212 24.099 0.461306 -4.69248 -12.5108 -14.5043 2.03217e-16 0.0 3.88251e-19 -5.92429 -12.2825 -2.22154 0.0495345 21.2998 -0.375772 3.76982 -11.6803 12.3459
88.673 83.4988 -71.9537 2.9808 -52.7251 0.4031 -2.68137 1.12824 3.90667 0.485253 -1.27919 1.09661 -5.06904 5.98972 -2.65229 3.16883 -7.01045 -4.31041 -0.0 0.0 0.0 -0.0 0.0 0.0 1.0525e-13 8.50781e-14 -9.03128e-13 78.6354 20.323 0.62654 -10.4036 -4.39027 18.5607 -0.0254437 4.5487 0.640638 1.58288e-09 -3.66592e-09 -1.40959e-09 2.72884e-09 -6.34414e-09 -2.44566e-09 1.58289e-09 -3.66592e-09 -1.4096e-09 7.73091 5.47488 0.417314 1.58289e-09 -3.66592e-09 -1.4096e-09 2.90554 0.965183 0.102902 1.58289e-09 -3.66593e-09 -1.4096e-09 10.2786 0.731801 0.0259123 1.58288e-09 -3.66592e-09 -1.4096e-09 2.22167 -0.733487 -0.20892 1.05022e-13 8.50802e-14 -9.03526e-13 -76.8516 33.8545 -0.991379 12.2721 -5.64132 -22.1378 0.0357653 -5.39007 0.75979 1.25853e-09 -3.15821e-09 -1.96285e-09 2.18286e-09 -5.46057e-09 -3.38902e-09 1.25853e-09 -3.15821e-09 -1.96285e-09 -7.73091 5.47488 -0.417314 1.25853e-09 -3.15821e-09 -1.96285e-09 -2.90554 0.965183 -0.102902 1.25853e-09 -3.15821e-09 -1.96286e-09 -10.2786 0.731801 -0.0259123 1.25853e-09 -3.15821e-09 -1.96287e-09 -2.22167 -0.733487 0.20892 -2.03217e-16 0.0 -3.88251e-19 0.863818 -15.8823 1.38935 -0.151793 29.383 0.601621 -6.70809 -15.6263 -17.9921 2.03217e-16 0.0 3.88251e-19 -7.17686 -14.2947 -2.73641 0.105569 25.9417 -0.486742 5.36667 -14.7137 15.2724
88.6906 83.4939 -71.9967 2.6292 -52.7245 0.7104 -2.78066 1.24177 4.20936 0.50974 -1.42502 1.18244 -5.41622 6.42729 -2.8452 3.35584 -7.48372 -4.62694 -0.0 0.0 0.0 -0.0 0.0 0.0 8.75704e-14 7.426e-14 -9.88701e-13 84.1374 21.806 0.651934 -11.0275 -4.66404 19.8736 -0.0301926 4.80086 0.676418 2.05539e-09 -3.98561e-09 -1.78015e-09 3.54366e-09 -6.89782e-09 -3.0885e-09 2.05539e-09 -3.98561e-09 -1.78016e-09 7.73091 5.47488 0.417314 2.05539e-09 -3.98561e-09 -1.78016e-09 2.90554 0.965183 0.102902 2.0554e-09 -3.98561e-09 -1.78016e-09 10.2786 0.731801 0.0259123 2.05539e-09 -3.98561e-09 -1.78016e-09 2.22167 -0.733487 -0.20892 8.74073e-14 7.42623e-14 -9.89055e-13 -82.2285 36.2699 -1.04431 12.9817 -5.97693 -23.7314 0.0441774 -5.8015 0.818358 1.5024e-09 -3.6002e-09 -1.96761e-09 2.60509e-09 -6.22588e-09 -3.39717e-09 1.5024e-09 -3.6002e-09 -1.96761e-09 -7.73091 5.47488 -0.417314 1.5024e-09 -3.6002e-09 -1.9676e-09 -2.90554 0.965183 -0.102902 1.5024e-09 -3.6002e-09 -1.96761e-09 -10.2786 0.731801 -0.0259123 1.5024e-09 -3.6002e-09 -1.96763e-09 -2.22167 -0.733487 0.20892 -2.03217e-16 0.0 -3.88251e-19 1.0326 -16.809 1.58208 -0.191181 31.4271 0.660483 -7.60983 -16.734 -19.459 2.03217e-16 0.0 3.88251e-19 -7.60123 -15.1352 -2.93034 0.133795 27.8046 -0.53468 6.08821 -15.887 16.4527
88.6911 83.4913 -72.024 2.428 -52.7778 0.8835 -2.62322 1.28314 4.22033 0.487429 -1.49732 1.18661 -5.3957 6.40588 -2.83056 3.34178 -7.40461 -4.60563 -0.0 0.0 0.0 -0.0 0.0 0.0 5.00697e-14 4.88251e-14 -1.01867e-12 83.5127 21.7267 0.609566 -10.9578 -4.63748 19.7275 -0.028314 4.66569 0.657271 2.58767e-09 -4.06767e-09 -2.17688e-09 4.46165e-09 -7.04051e-09 -3.77674e-09 2.58767e-09 -4.06767e-09 -2.1769e-09 7.73091 5.47488 0.417314 2.58767e-09 -4.06767e-09 -2.17689e-09 2.90554 0.965183 0.102902 2.58768e-09 -4.06767e-09 -2.17689e-09 10.2786 0.731801 0.0259123 2.58767e-09 -4.06767e-09 -2.17689e-09 2.22167 -0.733487 -0.20892 4.99937e-14 4.88274e-14 -1.01895e-12 -81.6744 36.0572 -0.96285 12.9206 -5.95235 -23.5877 0.0439676 -5.80663 0.819067 1.72971e-09 -3.91493e-09 -1.76423e-09 2.99823e-09 -6.77167e-09 -3.04592e-09 1.7297e-09 -3.91493e-09 -1.76423e-09 -7.73091 5.47488 -0.417314 1.72971e-09 -3.91493e-09 -1.76422e-09 -2.90554 0.965183 -0.102902 1.72971e-09 -3.91493e-09 -1.76423e-09 -10.2786 0.731801 -0.0259123 1.72971e-09 -3.91493e-09 -1.76424e-09 -2.22167 -0.733487 0.20892 -2.03217e-16 0.0 -3.88251e-19 1.19615 -16.7436 1.69692 -0.185953 31.1573 0.651379 -7.51112 -16.4937 -19.405 2.03217e-16 0.0 3.88251e-19 -7.41587 -15.1393 -2.88903 0.131803 27.682 -0.531652 6.01903 -15.7893 16.3255
88.7021 83.4897 -72.0257 2.468 -52.8334 0.8697 -2.38675 1.29212 4.10353 0.45129 -1.52648 1.15476 -5.23017 6.19899 -2.73009 3.24771 -7.111 -4.44289 -0.0 0.0 0.0 -0.0 0.0 0.0 9.50842e-15 2.21354e-14 -9.89306e-13 80.4328 21.0102 0.545087 -10.6102 -4.48966 18.9967 -0.0242555 4.3935 0.618719 2.96147e-09 -3.90389e-09 -2.45801e-09 5.10626e-09 -6.75765e-09 -4.26425e-09 2.96147e-09 -3.90389e-09 -2.45802e-09 7.73091 5.47488 0.417314 2.96148e-09 -3.90389e-09 -2.45802e-09 2.90554 0.965183 0.102902 2.96148e-09 -3.90389e-09 -2.45801e-09 10.2786 0.731801 0.0259123 2.96147e-09 -3.9039e-09 -2.45801e-09 2.22167 -0.733487 -0.20892 9.5169e-15 2.21376e-14 -9.89508e-13 -78.7421 34.7905 -0.837589 12.5503 -5.78298 -22.7462 0.0401407 -5.64531 0.79606 1.85202e-09 -4.01419e-09 -1.4559e-09 3.20944e-09 -6.94483e-09 -2.51354e-09 1.85201e-09 -4.01419e-09 -1.45589e-09 -7.73091 5.47488 -0.417314 1.85202e-09 -4.01419e-09 -1.45589e-09 -2.90554 0.965183 -0.102902 1.85202e-09 -4.01419e-09 -1.4559e-09 -10.2786 0.731801 -0.0259123 1.85203e-09 -4.01419e-09 -1.45591e-09 -2.22167 -0.733487 0.20892 -2.03217e-16 0.0 -3.88251e-19 1.31701 -16.2691 1.74841 -0.163314 29.9674 0.615614 -7.01017 -15.7362 -18.7193 2.03217e-16 0.0 3.88251e-19 -7.01493 -14.7848 -2.76055 0.117274 26.7464 -0.507679 5.63182 -15.1805 15.6759
88.704 83.4896 -72.0324 2.4225 -52.8522 0.9131 -2.24976 1.30839 4.02293 0.434636 -1.54284 1.13255 -5.14156 6.08006 -2.66561 3.19387 -6.94063 -4.33522 -0.0 0.0 0.0 -0.0 0.0 0.0 -1.73522e-14 7.55285e-15 -8.96867e-13 78.5715 20.5815 0.503563 -10.3985 -4.39851 18.5557 -0.0220433 4.23461 0.596232 2.95857e-09 -3.48605e-09 -2.48174e-09 5.10094e-09 -6.03469e-09 -4.30493e-09 2.95857e-09 -3.48605e-09 -2.48176e-09 7.73091 5.47488 0.417314 2.95857e-09 -3.48605e-09 -2.48175e-09 2.90554 0.965183 0.102902 2.95857e-09 -3.48606e-09 -2.48175e-09 10.2786 0.731801 0.0259123 2.95856e-09 -3.48606e-09 -2.48175e-09 2.22167 -0.733487 -0.20892 -1.72871e-14 7.55498e-15 -8.97016e-13 -76.9918 34.0444 -0.755057 12.3281 -5.68147 -22.2468 0.0380295 -5.55741 0.783526 1.7809e-09 -3.80978e-09 -1.14581e-09 3.08587e-09 -6.59222e-09 -1.97827e-09 1.78089e-09 -3.80979e-09 -1.14581e-09 -7.73091 5.47488 -0.417314 1.7809e-09 -3.80979e-09 -1.1458e-09 -2.90554 0.965183 -0.102902 1.7809e-09 -3.80979e-09 -1.14581e-09 -10.2786 0.731801 -0.0259123 1.78091e-09 -3.80978e-09 -1.14582e-09 -2.22167 -0.733487 0.20892 -2.03217e-16 0.0 -3.88251e-19 1.36411 -15.9683 1.75301 -0.150803 29.2514 0.594722 -6.71404 -15.2861 -18.2919 2.03217e-16 0.0 3.88251e-19 -6.79371 -14.5492 -2.69351 0.108779 26.1702 -0.493311 5.40862 -14.8174 15.2925
